Coordinates
version=1
nRows=19
nColumns=36
inDegrees=yes

Units are S.I. units (second, meters, Newtons, ...)
If the header above contains a line with 'inDegrees', this indicates whether rotational values are in degrees (yes) or radians (no).

endheader
time	pelvis_tilt	pelvis_list	pelvis_rotation	pelvis_tx	pelvis_ty	pelvis_tz	hip_flexion_r	hip_adduction_r	hip_rotation_r	knee_angle_r	knee_angle_r_beta	ankle_angle_r	subtalar_angle_r	mtp_angle_r	hip_flexion_l	hip_adduction_l	hip_rotation_l	knee_angle_l	knee_angle_l_beta	ankle_angle_l	subtalar_angle_l	mtp_angle_l	lumbar_extension	lumbar_bending	lumbar_rotation	arm_flex_r	arm_add_r	arm_rot_r	elbow_flex_r	pro_sup_r	arm_flex_l	arm_add_l	arm_rot_l	elbow_flex_l	pro_sup_l
      3.23333330	    -18.10798363	     -3.99061381	      8.55399839	      0.74412175	      0.80789365	      0.10893599	     57.75307277	    -25.33217503	    -18.09563028	     69.62060909	      1.21510886	     30.80251734	     -3.04435971	     -7.49999987	     60.35000844	    -17.83751569	     -9.03117895	     67.28185387	      1.17428988	     32.82285815	     -7.18608041	     -7.49999987	    -21.60588434	      4.31242897	      0.71498163	     73.07282378	      1.84717759	     62.94301709	    119.30400163	    105.57674850	     64.06138863	      4.18747741	     30.60969100	    101.55995468	    106.10729002
      3.25000000	    -18.76555869	     -4.33342470	      8.59151129	      0.74722008	      0.80491952	      0.10607300	     59.84146444	    -25.68065605	    -17.64378688	     71.60231742	      1.24969619	     31.73719537	     -3.06486004	     -7.49999987	     62.62895078	    -17.97848572	     -8.14610579	     69.38547086	      1.21100492	     33.76943570	     -6.93786465	     -7.49999987	    -22.46747712	      4.91294599	      0.61058391	     71.71846647	      1.90938723	     64.93182777	    121.12533040	    105.67901463	     61.49805121	      4.01628732	     43.72820302	    107.16604051	    107.26955732
      3.26666670	    -19.21478574	     -4.51394888	      8.63922776	      0.74687477	      0.79506733	      0.10695011	     61.59619571	    -26.02839076	    -17.09800147	     73.43429033	      1.28167015	     32.59430155	     -3.14553162	     -7.49999987	     64.38549443	    -18.03573259	     -7.44916256	     71.24921188	      1.24353334	     34.54283516	     -6.70536530	     -7.49999987	    -23.33991196	      5.00954367	      1.27116377	     70.55896573	      1.58778549	     64.91913776	    122.73203379	    104.33529717	     61.57976118	      5.38276533	     55.25302533	    108.70947321	    108.06450400
      3.28333330	    -19.90364588	     -4.83200888	      8.65630356	      0.74022027	      0.78832501	      0.10419482	     63.47520952	    -26.29547506	    -16.64018976	     75.04855204	      1.30984433	     33.21336823	     -3.17087502	     -7.49999987	     66.44744903	    -18.09800667	     -6.64515307	     73.02508826	      1.27452823	     35.31853028	     -6.33274200	     -7.49999987	    -24.17007528	      5.60818502	      1.24571073	     70.76752556	      1.22334469	     65.62423075	    123.10672655	    103.95663640	     62.66657917	      5.79442064	     61.08930958	    109.70420173	    108.23424324
      3.30000000	    -20.50929028	     -5.09697917	      8.61404483	      0.73595748	      0.78418976	      0.10717349	     65.18649223	    -26.39835757	    -16.12310925	     76.45193192	      1.33433793	     33.68626189	     -3.31120225	     -7.49999987	     68.29319192	    -18.16090629	     -5.89941530	     74.57091850	      1.30150805	     35.87411510	     -6.11220373	     -7.49999987	    -25.39124794	      5.89068982	      1.91262565	     71.40960854	      0.57465125	     66.13397127	    123.25418953	    103.36263992	     64.32951680	      5.96903993	     64.48153785	    109.25908317	    107.99158475
      3.31666670	    -21.01350639	     -5.29678125	      8.59023020	      0.73470115	      0.77864771	      0.10144477	     66.65110016	    -26.58539873	    -15.69836236	     77.60087596	      1.35439079	     34.00666831	     -3.50813066	     -7.49999987	     69.81021172	    -18.09975275	     -5.26704461	     75.86318690	      1.32406239	     36.42866445	     -5.95953195	     -7.49999987	    -26.47778240	      6.16686091	      2.31796755	     72.36293511	     -0.01086133	     67.04482207	    123.73774004	    102.75352602	     65.87374753	      6.74246820	     66.34721567	    108.61186025	    107.37402830
      3.33333330	    -21.42537402	     -5.43655322	      8.52410302	      0.72961013	      0.77469436	      0.09906376	     67.95497517	    -26.70049213	    -15.20510628	     78.51622786	      1.37036669	     34.18382325	     -3.64787364	     -7.49999987	     71.15120426	    -17.97609041	     -4.64854736	     77.02690526	      1.34437311	     36.75647310	     -5.87204764	     -7.49999987	    -27.67515705	      6.38999686	      3.08362323	     73.50030711	     -1.11768581	     67.84719745	    123.99809747	     98.32686561	     67.71089629	      7.33194575	     67.38065809	    107.44520165	    101.69400114
      3.35000000	    -21.76134191	     -5.59630006	      8.40020737	      0.73397530	      0.77458949	      0.10226094	     68.81698193	    -26.62106888	    -14.90723498	     79.02924385	      1.37932051	     34.40642190	     -3.83439644	     -7.49999987	     72.09481071	    -17.88436660	     -4.04637136	     77.82196652	      1.35824955	     37.01006941	     -5.82379240	     -7.49999987	    -28.93516826	      6.61097596	      3.85797918	     74.84529745	     -1.10495724	     68.75559010	    124.34669787	     98.44746744	     67.88316823	      7.44928530	     67.46345936	    107.59692706	    101.60048089
      3.36666670	    -22.05634980	     -5.66641586	      8.37083392	      0.73433299	      0.76285720	      0.10265234	     69.80584520	    -26.63749596	    -14.39467061	     79.83629996	      1.39340630	     34.71563133	     -4.23011198	     -7.49999987	     72.99944821	    -17.74389937	     -3.53089407	     78.75438341	      1.37452329	     37.20205293	     -5.83492285	     -7.49999987	    -29.47651627	      6.58936653	      4.15933155	     75.81827626	     -0.48463179	     69.24277647	    124.56400261	     95.63048930	     68.59597065	      7.66892903	     67.24307233	    107.91366939	     98.40225429
      3.38333330	    -22.21838450	     -5.97631382	      8.29741106	      0.73244173	      0.75515034	      0.10201630	     70.49723599	    -26.46075417	    -14.16556064	     80.56703005	      1.40615994	     35.05717526	     -4.28506493	     -7.49999987	     73.87670202	    -17.87910683	     -2.87464905	     79.72865365	      1.39152751	     37.82648104	     -5.31188891	     -7.49999987	    -30.00486678	      7.13747422	      4.47619553	     77.44111813	     -0.00901302	     70.00620208	    124.59375512	     98.01552377	     69.50065529	      7.74239155	     67.30968346	    109.59454413	     98.29283988
      3.40000000	    -22.40654226	     -6.09475222	      8.21677232	      0.73185520	      0.75261820	      0.10199341	     71.31815265	    -26.36807801	    -13.73732055	     81.35289655	      1.41987590	     35.34363533	     -4.43397336	     -7.49999987	     74.63032075	    -17.87110664	     -2.37305912	     80.60898322	      1.40689216	     38.26466532	     -5.07624656	     -7.49999987	    -30.42107577	      7.18258528	      4.80505169	     78.09162980	     -0.18310226	     70.31343967	    124.93349871	     95.64504655	     69.85177485	      8.20754885	     67.68677205	    110.02690924	     95.90950374
      3.41666670	    -22.41853675	     -6.21415237	      8.15900683	      0.73470926	      0.74825528	      0.10389906	     71.82146130	    -26.22770680	    -13.40695778	     82.07142663	      1.43241662	     35.75280804	     -4.50621162	     -7.49999987	     75.10080050	    -17.91932398	     -1.93758857	     81.42123217	      1.42106858	     38.81158354	     -4.67979870	     -7.49999987	    -30.81944143	      7.19757377	      5.21210757	     78.78970240	      0.15542476	     69.86866881	    124.84800832	     95.71323276	     70.50112483	      8.29356236	     67.15069080	    110.09404319	     96.00006726
      3.43333330	    -22.34140948	     -6.35361131	      8.08243082	      0.73484020	      0.74895901	      0.10455184	     72.01453305	    -25.96935008	    -13.17201793	     82.53930396	      1.44058262	     36.07219607	     -4.50829234	     -7.49999987	     75.31467732	    -18.09627416	     -1.60498046	     82.01414580	      1.43141688	     39.49297379	     -3.88086929	     -7.49999987	    -31.27856477	      7.25408947	      5.54312177	     79.31067530	      0.51850636	     69.78802920	    124.70861047	     94.97166966	     70.97097132	      8.08703422	     66.56909784	    110.22318611	     95.25430887
      3.45000000	    -22.27347813	     -6.46498869	      7.97814470	      0.73293431	      0.74951671	      0.10418599	     72.13248999	    -25.69157594	    -12.97804982	     82.83738172	      1.44578505	     36.20587672	     -4.61199410	     -7.49999987	     75.44947715	    -18.25570270	     -1.32124987	     82.45400568	      1.43909388	     39.96671692	     -3.23724128	     -7.49999987	    -31.65676135	      7.24856186	      5.81753130	     79.96494457	      0.70198589	     69.14208148	    124.52132664	     94.66723015	     71.63022817	      8.07849723	     66.11105656	    110.32182016	     95.07796885
      3.46666670	    -22.36332206	     -6.50046546	      7.89077447	      0.73324145	      0.75190983	      0.10459548	     72.23053981	    -25.48887717	    -12.84206358	     82.88624511	      1.44663788	     36.27702580	     -4.70962043	     -7.49999987	     75.46834668	    -18.30618888	     -1.18101876	     82.54285072	      1.44064452	     40.19100811	     -2.87855143	     -7.49999987	    -31.64595184	      7.14456878	      5.79060843	     80.05272420	      0.70358896	     69.09593119	    124.62745383	     93.96449776	     71.76493312	      7.91700072	     65.95559928	    110.13577718	     94.39618420
      3.48333330	    -22.33666002	     -6.53733645	      7.74496131	      0.73205732	      0.75526254	      0.10457867	     72.06525524	    -25.15596741	    -12.77961936	     82.67059216	      1.44287403	     36.16541623	     -4.79025801	     -7.49999987	     75.23176589	    -18.44401895	     -1.11548112	     82.43732705	      1.43880278	     40.43062004	     -2.34988293	     -7.49999987	    -31.58778625	      6.96459514	      5.85953580	     80.15869152	      0.91461803	     69.05450254	    125.01921221	     92.89370764	     71.81687283	      8.21348152	     65.75727568	    110.59644796	     93.31455337
      3.50000000	    -22.42623392	     -6.53517493	      7.65071771	      0.72776469	      0.75863116	      0.10178923	     71.93587252	    -24.93305662	    -12.73853770	     82.28524491	      1.43614845	     36.02862962	     -4.69762487	     -7.49999987	     75.02004266	    -18.43280027	     -1.09193274	     82.12238326	      1.43330598	     40.43776551	     -2.12899489	     -7.49999987	    -31.16200181	      6.92709884	      5.69320414	     80.45067296	      0.92139438	     68.92153109	    125.05260077	     92.92515979	     72.29950331	      8.35002658	     65.45264259	    110.65010779	     93.33786030
      3.51666670	    -22.12622723	     -6.44662173	      7.46229906	      0.72578957	      0.76197814	      0.10149363	     71.45023454	    -24.58569467	    -12.64484127	     81.87459876	      1.42898132	     35.52268284	     -4.79651801	     -7.49999987	     74.36990551	    -18.60928468	     -1.19762941	     81.79495514	      1.42759128	     40.63978063	     -1.44983558	     -7.49999987	    -31.26332987	      6.69202383	      5.69370224	     81.53304435	      1.31801989	     68.03512897	    125.42878507	     92.06119712	     73.07862077	      8.66458078	     64.69962361	    111.03235553	     92.44279446
      3.53333330	    -21.61131795	     -6.30119894	      7.30710476	      0.72676326	      0.77195113	      0.10214567	     70.36644949	    -24.21652308	    -12.73414391	     80.94290175	      1.41272014	     35.07836855	     -4.74169332	     -7.49999987	     73.13837989	    -18.68140134	     -1.39840963	     80.97383533	      1.41326003	     40.59628898	     -1.06810812	     -7.49999987	    -31.60858221	      6.45757429	      5.58062678	     82.13322084	      1.50521429	     68.70050998	    125.60148645	     91.85171915	     73.58959587	      8.23012417	     64.85758760	    111.10488807	     91.87706842
